<svg version="1.1" xmlns="http://www.w3.org/2000/svg" xmlns:xlink="http://www.w3.org/1999/xlink" width="400" height="344.34783" viewBox="0,0,400,344.34783"><defs><clipPath id="clip-1"><rect x="0" y="0" width="400" height="344.34783" fill="none" fill-rule="nonzero"/></clipPath></defs><g fill="none" fill-rule="none" stroke="none" stroke-width="1" stroke-linecap="butt" stroke-linejoin="miter" stroke-miterlimit="10" stroke-dasharray="" stroke-dashoffset="0" font-family="none" font-weight="none" font-size="none" text-anchor="none" style="mix-blend-mode: normal"><g clip-path="url(#clip-1)" id="svg 1 14 1"><g id="svgg 1 1 1" fill-rule="evenodd"><path d="M197.588,13.338c-2.131,0.294 -4.371,1.135 -5.95,2.233c-2.811,1.955 -11.583,9.258 -12.999,10.822c-0.291,0.321 -2.398,2.134 -8.583,7.381c-0.552,0.468 -1.819,1.6 -2.817,2.515c-0.997,0.914 -2.642,2.31 -3.655,3.1c-1.012,0.791 -2.156,1.748 -2.54,2.127c-0.9,0.888 -4.792,4.293 -6.35,5.555c-0.663,0.538 -1.7,1.446 -2.304,2.018c-0.604,0.572 -1.418,1.286 -1.81,1.587c-0.925,0.711 -5.854,4.876 -8.119,6.861c-0.973,0.852 -2.437,2.093 -3.253,2.756c-3.189,2.591 -16.481,13.66 -24.792,20.646c-4.558,3.831 -9.002,7.454 -13.246,10.798c-1.146,0.903 -2.169,1.759 -2.273,1.903c-0.104,0.144 -1.037,0.928 -2.074,1.742c-1.036,0.814 -2.225,1.973 -2.642,2.575l-0.758,1.096l-0.114,40.31l-0.113,40.31l0.958,1.63c1.359,2.312 7.262,6.394 9.325,6.449c0.351,0.009 1.126,0.228 1.723,0.486c6.195,2.675 21.346,3.879 28.82,2.291c6.731,-1.429 8.518,-1.842 9.13,-2.106c0.379,-0.163 1.31,-0.447 2.068,-0.63c2.096,-0.506 15.133,-5.138 17.571,-6.243c1.491,-0.677 9.557,-3.597 11.369,-4.118c4.819,-1.383 5.216,-1.572 4.307,-2.049c-2.432,-1.275 -11.056,-7.287 -17.692,-12.333c-2.68,-2.038 -6.035,-4.491 -7.457,-5.452c-7.897,-5.338 -14.842,-10.197 -15.716,-10.995c-0.211,-0.193 -0.831,-0.752 -1.378,-1.243c-5.949,-5.341 -6.971,-14.494 -2.478,-22.19c1.73,-2.962 7.257,-8.541 12.295,-12.412c1.967,-1.511 4.258,-3.324 5.09,-4.029c0.833,-0.705 2.246,-1.785 3.141,-2.401c1.326,-0.911 7.152,-5.278 11.846,-8.88c0.504,-0.386 1.072,-0.702 1.264,-0.702c0.191,0 0.399,-0.126 0.462,-0.279c0.063,-0.153 1.975,-1.507 4.249,-3.008c6.691,-4.416 10.162,-7.118 13.259,-10.322c3.023,-3.127 3.307,-3.512 6.11,-8.269c0.223,-0.379 1.073,-1.774 1.888,-3.101l1.482,-2.411l0.172,-18.949c0.19,-20.902 0.14,-20.43 2.392,-22.325c2.264,-1.905 6.81,-0.719 8.032,2.095c0.29,0.668 0.459,6.824 0.59,21.486c0.165,18.427 0.242,20.616 0.751,21.188c0.312,0.352 0.622,0.891 0.689,1.199c0.192,0.882 7.062,8.277 10.202,10.982c2.565,2.209 6.71,5.028 10.743,7.306c2.344,1.323 3.149,1.724 6.05,3.007c0.948,0.419 2.188,0.977 2.756,1.241c0.569,0.265 1.499,0.587 2.067,0.716c0.569,0.13 1.34,0.445 1.714,0.701c0.373,0.256 1.149,0.47 1.722,0.477c0.574,0.006 1.344,0.238 1.712,0.516c0.368,0.279 1.163,0.506 1.767,0.506c0.604,0 1.274,0.213 1.49,0.473c0.216,0.26 1.281,0.577 2.368,0.705c1.086,0.127 2.276,0.457 2.644,0.733c0.897,0.672 5.08,0.657 7.669,-0.028c1.839,-0.486 5.91,-1.13 11.989,-1.894c3.148,-0.396 17.917,-0.391 21.017,0.006c4.954,0.635 7.303,1.068 9.739,1.795c4.431,1.322 4.143,0.185 -0.977,-3.857c-1.427,-1.127 -5.926,-5.157 -6.695,-5.997c-0.355,-0.389 -4.268,-3.838 -6.34,-5.588c-0.644,-0.545 -2.427,-2.079 -3.962,-3.409c-1.534,-1.33 -4.728,-4.03 -7.097,-6c-2.368,-1.97 -4.539,-3.782 -4.823,-4.028c-3.579,-3.091 -6.414,-5.445 -8.174,-6.788c-2.285,-1.743 -9.711,-7.826 -13.704,-11.225c-1.326,-1.129 -4.427,-3.719 -6.891,-5.755c-2.463,-2.035 -5.331,-4.421 -6.373,-5.3c-1.043,-0.88 -3.368,-2.811 -5.168,-4.292c-4.698,-3.864 -5.106,-4.214 -8.307,-7.115c-1.59,-1.441 -3.976,-3.525 -5.302,-4.631c-1.327,-1.106 -2.506,-2.148 -2.621,-2.316c-0.115,-0.168 -0.599,-0.564 -1.075,-0.881c-0.476,-0.317 -2.445,-1.856 -4.375,-3.421c-4.036,-3.269 -5.417,-4.033 -8.941,-4.942c-2.544,-0.655 -2.767,-0.675 -4.694,-0.409M82.144,110.018c-0.394,0.222 -3.013,2.342 -5.821,4.711c-6.374,5.378 -12.793,10.619 -16.032,13.092c-1.365,1.042 -3.59,2.795 -4.944,3.896c-1.354,1.1 -2.849,2.305 -3.323,2.676c-0.474,0.372 -1.946,1.568 -3.273,2.657c-1.326,1.09 -3.885,3.139 -5.685,4.553c-1.8,1.414 -4.69,3.767 -6.422,5.229c-3.26,2.751 -8.824,7.181 -12.259,9.758c-1.085,0.814 -2.635,2.114 -3.445,2.889c-0.811,0.775 -1.583,1.411 -1.716,1.413c-1.222,0.019 -2.858,4.786 -2.839,8.273c0.029,5.605 2.06,8.538 10.488,15.157c1.801,1.414 3.361,2.692 3.468,2.84c0.107,0.148 0.836,0.694 1.619,1.214c0.784,0.519 3.303,2.416 5.599,4.217c2.296,1.8 4.769,3.738 5.496,4.306c4.623,3.617 21.155,17.173 22.061,18.09c0.095,0.096 0.793,0.63 1.551,1.188c1.191,0.876 5.184,4.158 5.684,4.672c0.095,0.097 1.025,0.87 2.068,1.718c1.042,0.847 1.972,1.641 2.067,1.763c0.579,0.748 6.052,4.775 6.353,4.675c0.428,-0.143 0.705,-117.556 0.28,-118.696c-0.221,-0.59 -0.367,-0.634 -0.975,-0.291M316.822,111.511c-0.105,0.274 -0.193,26.331 -0.196,57.906l-0.006,57.408l0.751,0.799c1.789,1.905 2.385,1.534 10.578,-6.581c9.307,-9.219 9.162,-9.082 13.689,-12.913c5.983,-5.061 6.682,-5.643 10.309,-8.562c1.89,-1.522 4.541,-3.675 5.891,-4.785c4.76,-3.913 12.747,-10.295 13.737,-10.976c5.977,-4.112 9.546,-9.494 9.595,-14.47c0.057,-5.668 -0.521,-6.344 -15.795,-18.46c-3.601,-2.856 -7.534,-6.073 -8.742,-7.148c-1.207,-1.075 -2.807,-2.373 -3.555,-2.883c-0.748,-0.511 -2.086,-1.561 -2.973,-2.333c-0.887,-0.773 -3.395,-2.823 -5.574,-4.556c-4.276,-3.4 -8.943,-7.273 -10.352,-8.59c-0.765,-0.714 -3.125,-2.703 -5.319,-4.483c-2.045,-1.659 -5.974,-5.019 -6.724,-5.751c-0.474,-0.462 -1.404,-1.188 -2.067,-1.613c-0.663,-0.425 -1.622,-1.163 -2.131,-1.64c-0.729,-0.683 -0.965,-0.761 -1.116,-0.369M268.906,148.508c-4.446,0.337 -6.461,0.738 -16.365,3.257c-2.272,0.578 -7.932,2.556 -9.819,3.433c-7.814,3.627 -15.828,7.843 -17.558,9.236c-1.344,1.082 -1.253,1.19 3.886,4.595c2.214,1.467 4.36,2.912 4.769,3.21c1.244,0.908 8.82,6.606 10.146,7.632c0.684,0.529 3.474,2.518 6.201,4.42c8.077,5.634 8.879,6.252 11.654,8.973c6.045,5.93 7.534,14.476 4.086,23.446c-1.257,3.27 -4.924,7.223 -12.676,13.667c-6.406,5.325 -14.051,11.25 -17.927,13.895c-0.417,0.284 -1.113,0.788 -1.547,1.12c-0.434,0.332 -0.877,0.603 -0.983,0.603c-0.106,0 -1.09,0.597 -2.185,1.327c-1.096,0.73 -4.084,2.707 -6.641,4.393c-2.557,1.686 -4.883,3.266 -5.168,3.511c-0.285,0.244 -1.837,1.482 -3.447,2.75c-10.294,8.102 -10.053,7.266 -10.116,35.047l-0.048,21.377l-0.801,1.026c-2.447,3.134 -6.066,3.254 -8.672,0.286l-1.035,-1.18v-23.029c0,-20.05 -0.067,-23.085 -0.517,-23.458c-0.284,-0.236 -0.517,-0.734 -0.517,-1.108c0,-0.692 -0.936,-2.11 -2.325,-3.523c-0.427,-0.434 -0.776,-1.024 -0.776,-1.313c0,-1.808 -10.05,-10.536 -16.193,-14.064c-4.563,-2.62 -10.906,-5.487 -12.139,-5.487c-0.288,0 -0.717,-0.233 -0.953,-0.517c-0.236,-0.285 -0.7,-0.517 -1.032,-0.517c-0.332,0 -1.282,-0.241 -2.111,-0.537c-0.829,-0.295 -2.516,-0.749 -3.747,-1.01c-1.232,-0.261 -2.86,-0.631 -3.618,-0.822c-4.264,-1.077 -9.41,-1.468 -10.301,-0.784c-1.004,0.77 -7.929,2.018 -15.883,2.862c-4.802,0.51 -20.716,0.181 -25.323,-0.524c-9.761,-1.492 -9.117,-1.491 -7.652,-0.008c0.992,1.004 1.451,1.385 6.446,5.338c4.132,3.27 7.612,6.283 15.676,13.573c3.667,3.315 6.901,6.132 10.371,9.033c1.781,1.489 3.626,3.037 4.099,3.439c1.012,0.86 5.663,4.778 8.299,6.992c1.014,0.851 2.623,2.161 3.577,2.91c0.953,0.75 3.129,2.612 4.834,4.139c1.706,1.527 3.799,3.313 4.651,3.967c1.239,0.951 7.546,6.486 8.269,7.257c0.095,0.101 1.258,1.094 2.584,2.206c1.326,1.112 3.497,2.993 4.823,4.18c1.327,1.188 3.807,3.354 5.513,4.814c1.705,1.461 4.264,3.76 5.686,5.111c1.422,1.35 3.127,2.899 3.79,3.443c0.662,0.543 2.298,2.016 3.636,3.273c7.177,6.746 9.357,7.825 15.656,7.75c6.001,-0.071 8.084,-1.335 17.179,-10.428c4.309,-4.307 8.493,-8.225 19.349,-18.121c1.248,-1.137 5.659,-5.009 9.802,-8.604c4.144,-3.596 7.78,-6.782 8.079,-7.079c0.299,-0.298 1.397,-1.23 2.439,-2.071c1.042,-0.841 1.972,-1.623 2.067,-1.737c0.095,-0.113 2.188,-1.943 4.651,-4.065c2.463,-2.122 5.797,-5.015 7.408,-6.427c4.754,-4.17 14.086,-12.11 23.428,-19.931c2.937,-2.459 6.116,-5.192 7.065,-6.074c0.949,-0.881 2.513,-2.167 3.475,-2.858c1.548,-1.113 1.794,-1.465 2.147,-3.074c0.451,-2.053 0.848,-76.599 0.425,-79.766c-0.857,-6.425 -18.79,-10.839 -38.091,-9.375" id="path0 1 1 1" fill="#f8f9f9"/><path d="M0,172.265v172.266h200h200v-172.266v-172.265h-200h-200v172.265M202.46,13.418c4.642,1.235 5.924,2.117 17.523,12.053c1.895,1.623 3.523,3.034 3.617,3.135c0.731,0.782 10.731,9.292 12.231,10.41c0.581,0.433 3.748,3.069 6.596,5.49c5.012,4.26 8.545,7.204 12.002,10.001c1.891,1.531 4.684,3.824 6.208,5.097c1.524,1.273 4.318,3.558 6.209,5.077c1.891,1.52 4.446,3.632 5.678,4.694c1.231,1.061 3.402,2.892 4.823,4.069c1.421,1.176 3.211,2.691 3.977,3.366c0.766,0.674 2.156,1.846 3.088,2.604c0.932,0.758 2.476,2.057 3.431,2.886c0.954,0.829 2.2,1.902 2.769,2.384c0.568,0.482 2.489,2.207 4.269,3.833c1.78,1.626 4.493,4.005 6.03,5.287c5.689,4.747 6.104,5.156 5.996,5.906c-0.13,0.911 -0.746,0.881 -5.27,-0.255c-6.376,-1.6 -7.395,-1.709 -17.399,-1.87c-7.947,-0.127 -10.443,-0.053 -13.092,0.392c-1.801,0.302 -4.281,0.696 -5.513,0.874c-1.232,0.179 -3.247,0.563 -4.479,0.854c-1.232,0.291 -2.99,0.535 -3.908,0.541c-1.314,0.01 -1.703,0.145 -1.832,0.636c-0.207,0.792 -2.461,2.251 -6.835,4.422c-3.699,1.836 -3.863,1.931 -7.709,4.473c-4.001,2.644 -4.947,3.328 -6.378,4.611c-6.901,6.192 -8.642,7.843 -10.421,9.88c-1.128,1.291 -2.335,2.799 -2.683,3.351c-0.349,0.552 -1.269,1.693 -2.045,2.535c-1.666,1.807 -3.34,4.158 -4.412,6.194c-0.424,0.805 -0.892,1.464 -1.042,1.464c-0.149,0 -0.487,0.518 -0.752,1.151c-0.453,1.084 -1.794,3.345 -4.196,7.073c-0.923,1.433 -3.16,5.991 -6.652,13.551c-1.28,2.772 -2.06,3.345 -3.051,2.243c-2.087,-2.322 -5.407,-9.405 -6.655,-14.199c-0.345,-1.326 -0.89,-3.109 -1.21,-3.962c-4.592,-12.232 -4.213,-33.737 0.893,-50.646c0.544,-1.8 1.093,-3.738 1.221,-4.306c0.127,-0.569 0.425,-1.267 0.662,-1.551c0.236,-0.284 0.543,-0.904 0.683,-1.378c0.402,-1.366 3.981,-7.608 4.469,-7.796c0.243,-0.093 1.263,-1.439 2.266,-2.991c1.004,-1.552 2.302,-3.334 2.885,-3.961l1.06,-1.139v-20.222c0,-16.028 -0.094,-20.436 -0.456,-21.255c-1.213,-2.751 -5.402,-3.898 -7.569,-2.074c-2.15,1.809 -2.271,2.955 -2.023,19.128c0.125,8.129 0.08,15.987 -0.105,18.212l-0.324,3.914l-1.965,3.321c-5.143,8.696 -6.666,10.471 -13.397,15.623c-0.19,0.145 -0.81,0.622 -1.378,1.061c-0.569,0.439 -2.972,2.097 -5.341,3.684c-12.371,8.288 -29.693,21.631 -34.403,26.5c-11.053,11.428 -9.786,22.682 3.57,31.709c6.598,4.46 7.813,5.298 12.745,8.79c2.653,1.878 5.367,3.858 6.03,4.399c0.663,0.542 1.361,1.096 1.55,1.231c0.674,0.482 3.106,2.298 3.445,2.572c2.108,1.708 10.284,7.159 12.928,8.619c1.196,0.661 0.959,1.631 -0.399,1.631c-0.861,0 -4.519,1.077 -8.566,2.523c-4.046,1.445 -4.242,1.521 -9.13,3.502c-0.569,0.231 -2.662,0.997 -4.652,1.704c-1.989,0.707 -4.083,1.485 -4.652,1.728c-0.569,0.243 -1.577,0.559 -2.24,0.701c-0.662,0.142 -1.359,0.378 -1.549,0.526c-0.373,0.29 -3.635,1.237 -5.857,1.7c-0.758,0.158 -2.386,0.526 -3.617,0.819c-5.841,1.385 -6.401,1.44 -14.643,1.427c-8.604,-0.014 -9.861,-0.172 -16.193,-2.039c-6.659,-1.964 -11.244,-4.489 -13.266,-7.305l-1.134,-1.578l-0.035,-10.726c-0.019,-5.899 0.004,-24.396 0.051,-41.106l0.086,-30.38l3.532,-3.045c1.942,-1.675 4.151,-3.504 4.909,-4.065c0.758,-0.562 1.766,-1.355 2.24,-1.764c1.099,-0.949 13.726,-11.384 14.642,-12.102c0.379,-0.296 1.396,-1.174 2.259,-1.951c0.864,-0.776 2.331,-2.031 3.261,-2.789c0.93,-0.758 2.317,-1.93 3.081,-2.605c0.765,-0.674 3.251,-2.744 5.525,-4.6c5.286,-4.314 5.148,-4.2 7.583,-6.232c1.135,-0.947 2.219,-1.886 2.408,-2.085c0.19,-0.199 1.043,-0.917 1.895,-1.596c0.853,-0.678 1.949,-1.606 2.437,-2.062c0.487,-0.455 1.65,-1.441 2.584,-2.19c1.476,-1.184 3.299,-2.747 8.785,-7.532c0.677,-0.59 3.214,-2.778 5.639,-4.862c5.021,-4.316 13.927,-12.107 19.804,-17.323c6.067,-5.384 9.941,-7.851 13.12,-8.353c2.495,-0.393 3.138,-0.356 5.733,0.334M140.717,27.214c9.739,0.272 11.779,0.414 12.219,0.854c0.375,0.375 0.402,0.528 0.093,0.528c-0.238,0 -1.086,0.608 -1.882,1.352c-1.837,1.715 -5.515,4.761 -7.305,6.05c-0.758,0.546 -1.869,1.468 -2.468,2.05c-0.599,0.581 -1.452,1.317 -1.895,1.637c-0.443,0.319 -1.947,1.559 -3.342,2.756c-1.395,1.197 -3.41,2.853 -4.479,3.68c-1.068,0.828 -2.501,1.99 -3.185,2.584c-4.76,4.136 -9.483,7.998 -11.75,9.609c-0.736,0.523 -1.989,1.578 -2.786,2.345c-0.796,0.767 -2.437,2.122 -3.646,3.012c-1.209,0.89 -2.534,1.928 -2.945,2.307c-0.647,0.597 -3.744,3.246 -5.349,4.575c-2.38,1.969 -5.553,4.558 -13.607,11.101c-0.816,0.663 -3.092,2.606 -5.058,4.317c-1.965,1.711 -4.938,4.172 -6.606,5.469c-1.668,1.297 -3.516,2.959 -4.106,3.693c-0.59,0.735 -1.259,1.336 -1.485,1.336c-0.227,0 -1.042,0.503 -1.812,1.119c-1.95,1.561 -9.222,7.686 -11.123,9.371c-4.066,3.601 -4.337,3.744 -5.182,2.726c-0.925,-1.114 -1.077,-41.317 -0.162,-42.798c0.093,-0.151 0.34,-1.342 0.548,-2.646c0.209,-1.304 0.509,-2.532 0.667,-2.729c0.158,-0.197 0.569,-1.288 0.913,-2.425c0.343,-1.137 0.819,-2.3 1.057,-2.584c0.238,-0.284 0.96,-1.137 1.604,-1.895c0.644,-0.758 1.427,-1.925 1.741,-2.594c1.41,-3.013 8.96,-10.522 13.654,-13.582c1.99,-1.297 4.169,-2.723 4.842,-3.169c0.674,-0.445 1.348,-0.81 1.498,-0.81c0.15,0 0.684,-0.291 1.187,-0.647c0.503,-0.356 2,-1.065 3.326,-1.575c1.327,-0.511 2.722,-1.058 3.101,-1.217c1.945,-0.814 9.896,-2.617 13.83,-3.137c7.003,-0.924 21.726,-1.168 39.893,-0.663M275.672,27.211c3.29,0.186 9.541,0.497 13.89,0.691c4.503,0.201 8.732,0.565 9.82,0.844c1.05,0.27 2.84,0.727 3.977,1.017c1.137,0.289 2.885,0.63 3.884,0.758c0.999,0.128 1.9,0.368 2.001,0.532c0.102,0.165 0.431,0.299 0.732,0.299c0.3,0 1.891,0.679 3.536,1.508c1.644,0.829 3.366,1.623 3.826,1.763c0.981,0.299 3.808,1.958 7.897,4.634c2.815,1.842 12.06,10.627 12.06,11.46c0,0.195 0.427,0.873 0.948,1.507c1.754,2.134 2.397,3.066 3.184,4.613c0.431,0.847 1.085,1.948 1.454,2.447c0.675,0.913 2.313,6.097 2.332,7.383c0.006,0.379 0.242,1.133 0.526,1.676c0.653,1.252 0.782,38.006 0.138,39.21c-0.272,0.509 -0.272,0.808 0,1.08c0.207,0.207 0.376,0.749 0.376,1.205v0.828l-1.292,-1.075c-0.71,-0.592 -2.067,-1.759 -3.014,-2.594c-0.948,-0.835 -2.808,-2.318 -4.135,-3.295c-1.326,-0.978 -3.32,-2.577 -4.431,-3.554c-1.11,-0.977 -2.373,-2.088 -2.806,-2.469c-0.433,-0.382 -1.764,-1.469 -2.959,-2.416c-1.195,-0.948 -2.877,-2.362 -3.74,-3.142c-0.862,-0.781 -2.653,-2.386 -3.979,-3.567c-1.327,-1.182 -3.032,-2.714 -3.79,-3.406c-0.758,-0.691 -1.998,-1.68 -2.756,-2.197c-0.758,-0.517 -2.447,-1.95 -3.753,-3.186c-1.305,-1.235 -2.493,-2.246 -2.638,-2.246c-0.259,0 -3.832,-2.973 -8.219,-6.84c-1.214,-1.07 -2.764,-2.324 -3.445,-2.787c-0.682,-0.464 -2.402,-1.833 -3.823,-3.044c-3.327,-2.834 -6.893,-5.748 -9.294,-7.596c-0.573,-0.441 -1.042,-0.987 -1.042,-1.214c0,-0.226 -0.504,-0.686 -1.12,-1.021c-0.616,-0.336 -2.282,-1.689 -3.703,-3.007c-1.422,-1.318 -2.725,-2.397 -2.896,-2.397c-0.172,0 -0.883,-0.582 -1.582,-1.293c-0.698,-0.71 -1.868,-1.757 -2.599,-2.325c-1.36,-1.058 -4.328,-3.62 -4.638,-4.003c-0.094,-0.118 -1.335,-1.143 -2.756,-2.279c-1.421,-1.136 -3.268,-2.707 -4.105,-3.491c-0.837,-0.783 -1.655,-1.424 -1.817,-1.424c-0.162,0 -0.95,-0.587 -1.751,-1.305c-0.801,-0.717 -2.077,-1.76 -2.835,-2.317c-2.22,-1.633 -4.313,-3.669 -4.11,-3.998c0.255,-0.412 20.996,-0.388 28.447,0.033M83.646,169.011c0.097,58.746 0.064,60.791 -0.969,60.791c-0.27,0 -5.597,-4.459 -6.191,-5.182c-0.095,-0.116 -1.413,-1.188 -2.929,-2.383c-1.516,-1.194 -2.833,-2.275 -2.928,-2.402c-0.095,-0.126 -1.565,-1.308 -3.268,-2.625c-1.702,-1.317 -4.356,-3.48 -5.897,-4.807c-1.541,-1.326 -4.631,-3.884 -6.867,-5.685c-2.236,-1.8 -5.086,-4.132 -6.334,-5.183c-2.32,-1.954 -7.589,-6.156 -9.269,-7.392c-3.524,-2.594 -15.072,-11.685 -15.939,-12.549c-0.301,-0.299 -1.231,-1.17 -2.068,-1.935c-3.584,-3.28 -4.589,-5.217 -4.949,-9.547c-0.535,-6.413 1.19,-8.783 12.558,-17.253c1.8,-1.342 4.293,-3.299 5.539,-4.35c1.247,-1.051 3.323,-2.764 4.614,-3.806c1.291,-1.042 3.837,-3.139 5.658,-4.659c1.821,-1.519 5.869,-4.774 8.995,-7.232c3.127,-2.458 6.11,-4.843 6.63,-5.302c0.521,-0.458 1.316,-1.08 1.767,-1.381c0.76,-0.506 7.125,-5.582 8.017,-6.392c0.216,-0.197 1.602,-1.365 3.079,-2.597c1.478,-1.231 3.937,-3.328 5.465,-4.659c3.483,-3.035 4.397,-3.642 4.844,-3.215c0.226,0.216 0.378,20.711 0.442,59.745M320.593,113.351c0.261,0 0.599,0.215 0.751,0.479c0.151,0.264 1.452,1.465 2.89,2.67c5.289,4.431 11.176,9.44 11.686,9.943c0.288,0.284 1.762,1.524 3.275,2.756c1.513,1.232 2.829,2.325 2.924,2.43c0.095,0.104 1.335,1.112 2.756,2.239c1.421,1.127 2.806,2.261 3.078,2.519c0.272,0.258 2.055,1.692 3.962,3.186c1.908,1.495 4.709,3.735 6.225,4.979c3.048,2.501 3.043,2.497 9.942,7.997c2.68,2.136 5.493,4.382 6.25,4.99c5.719,4.592 7.063,6.808 7.063,11.649c0,6.073 -2.045,8.963 -11.663,16.477c-2.52,1.97 -5.23,4.103 -6.02,4.74c-0.791,0.637 -1.593,1.274 -1.783,1.415c-0.189,0.141 -1.443,1.186 -2.786,2.323c-1.342,1.137 -4.187,3.463 -6.32,5.168c-2.134,1.705 -4.989,4.04 -6.344,5.187c-1.356,1.148 -3.55,2.993 -4.877,4.101c-3.675,3.069 -9.692,8.729 -15.672,14.743c-6.078,6.112 -6.792,6.478 -8.725,4.46l-0.926,-0.966v-57.627c0,-37.007 0.121,-57.852 0.338,-58.258c0.307,-0.573 0.485,-0.49 1.92,0.884c0.869,0.834 1.795,1.516 2.056,1.516M284.582,148.151c9.546,0.822 19.769,4.22 22.073,7.337l0.8,1.081l-0.092,39.976c-0.103,44.931 0.029,42.638 -2.562,44.499c-0.979,0.704 -2.557,2.001 -3.506,2.884c-0.949,0.882 -2.827,2.471 -4.172,3.532c-1.346,1.06 -3.148,2.521 -4.004,3.246c-0.856,0.725 -2.758,2.326 -4.225,3.558c-1.468,1.231 -3.018,2.549 -3.445,2.928c-0.427,0.379 -1.605,1.387 -2.618,2.24c-1.013,0.852 -3.01,2.56 -4.438,3.794c-1.428,1.235 -3.445,2.94 -4.481,3.79c-1.037,0.85 -2.132,1.778 -2.432,2.062c-1.735,1.641 -6.687,6.047 -7.488,6.663c-0.519,0.398 -2.183,1.807 -3.699,3.13c-1.516,1.324 -2.958,2.569 -3.204,2.767c-0.246,0.198 -0.711,0.608 -1.033,0.91c-0.58,0.544 -5.501,4.843 -7.453,6.512c-0.556,0.474 -1.801,1.56 -2.768,2.413c-1.731,1.527 -3.362,2.944 -9.142,7.943c-1.611,1.393 -3.859,3.401 -4.996,4.462c-1.137,1.061 -3.308,3.083 -4.824,4.494c-1.516,1.41 -5.392,5.124 -8.613,8.253c-11.814,11.474 -12.344,11.802 -19.121,11.829c-6.577,0.026 -11.763,-3.341 -24.092,-15.644c-0.469,-0.468 -2.161,-1.928 -6.371,-5.498c-1.909,-1.619 -9.676,-8.408 -9.847,-8.608c-0.095,-0.111 -1.413,-1.269 -2.929,-2.575c-1.516,-1.306 -3.299,-2.876 -3.962,-3.488c-0.663,-0.612 -2.238,-1.94 -3.501,-2.95c-1.262,-1.009 -3.913,-3.231 -5.892,-4.936c-1.978,-1.706 -5.269,-4.497 -7.312,-6.202c-2.044,-1.705 -4.524,-3.798 -5.512,-4.651c-0.988,-0.853 -3.013,-2.558 -4.5,-3.79c-1.487,-1.232 -3.58,-3.015 -4.651,-3.962c-1.07,-0.948 -4.249,-3.738 -7.063,-6.202c-2.814,-2.463 -6.153,-5.453 -7.419,-6.645c-1.266,-1.191 -3.987,-3.489 -6.047,-5.106c-2.06,-1.617 -4.411,-3.494 -5.225,-4.171c-0.815,-0.677 -2.086,-1.669 -2.825,-2.204c-2.918,-2.114 -2.438,-3.113 1.164,-2.421c1.159,0.223 3.581,0.553 5.381,0.732c1.8,0.18 4.358,0.484 5.684,0.676c8.393,1.214 31.998,-0.516 35.355,-2.591c0.433,-0.267 4.038,-1.181 4.659,-1.181c0.293,0 0.944,-0.32 1.448,-0.711c0.504,-0.391 1.895,-1.477 3.092,-2.412c1.197,-0.935 2.403,-1.7 2.681,-1.7c0.277,0 0.594,-0.233 0.703,-0.517c0.109,-0.284 0.512,-0.517 0.896,-0.517c0.384,0 1.181,-0.508 1.772,-1.128c0.947,-0.995 2.84,-2.559 8.697,-7.186c3.762,-2.972 12.831,-14.003 15.118,-18.387c0.297,-0.569 0.915,-1.654 1.375,-2.412c1.17,-1.929 4.259,-8.299 4.511,-9.302c0.115,-0.458 0.426,-1.014 0.692,-1.234c0.266,-0.221 0.483,-0.68 0.483,-1.021c0,-0.341 0.645,-1.879 1.434,-3.418c1.819,-3.547 2.447,-3.576 3.354,-0.154c0.206,0.774 0.685,1.767 1.066,2.206c0.381,0.439 0.692,1.026 0.692,1.305c0,0.28 0.527,2.155 1.171,4.168c1.296,4.052 1.892,6.558 2.957,12.446c0.394,2.179 0.871,4.629 1.06,5.445c0.189,0.815 0.503,4.071 0.698,7.235c0.195,3.164 0.5,6.108 0.679,6.544c0.425,1.032 0.424,17.101 -0.001,18.478c-0.438,1.423 -1.418,8.675 -1.627,12.051c-0.093,1.499 -0.377,3.049 -0.63,3.446c-0.254,0.396 -0.635,1.379 -0.847,2.184c-0.414,1.572 -1.254,1.945 -2.095,0.931c-0.319,-0.383 -0.512,-0.421 -0.689,-0.134c-0.324,0.523 -0.036,1.576 0.567,2.076c0.264,0.219 0.48,0.778 0.48,1.242c0,0.464 0.235,1.08 0.524,1.368c0.458,0.459 0.52,3.359 0.5,23.331c-0.027,25.601 -0.216,23.382 2.129,25.105c2.491,1.831 4.988,1.39 6.991,-1.236l0.934,-1.224l-0.097,-21.294c-0.11,-24.248 -0.185,-23.528 2.912,-27.927c1.452,-2.062 7.221,-7.404 10.224,-9.468c2.906,-1.997 10.502,-7.04 13.092,-8.692c3.35,-2.136 3.437,-2.196 6.948,-4.74c3.348,-2.425 11.011,-8.294 11.715,-8.972c0.252,-0.243 1.699,-1.442 3.215,-2.665c6.891,-5.559 11.444,-10.584 12.642,-13.954c3.993,-11.236 0.904,-19.94 -9.714,-27.377c-1.61,-1.128 -3.703,-2.591 -4.651,-3.25c-3.943,-2.746 -8.109,-5.786 -13.27,-9.683c-3.011,-2.274 -7.06,-5.142 -8.998,-6.374c-1.938,-1.232 -3.991,-2.662 -4.563,-3.179l-1.039,-0.939l0.817,-0.869c0.449,-0.479 0.971,-0.87 1.16,-0.87c0.189,0 0.588,-0.21 0.887,-0.467c0.3,-0.257 2.364,-1.422 4.589,-2.589c2.224,-1.167 4.705,-2.488 5.512,-2.937c4.999,-2.778 15.455,-6.395 24.093,-8.334c5.565,-1.249 16.812,-1.798 24.059,-1.174M345.159,247.416c0.137,22.904 -0.587,29.494 -3.88,35.306c-3.673,6.485 -5.654,8.93 -11.621,14.35c-3.699,3.36 -9.838,7.682 -13.185,9.283c-1.149,0.549 -2.476,1.216 -2.95,1.481c-1.483,0.831 -4.131,1.967 -5.276,2.265c-0.604,0.157 -2.726,0.759 -4.716,1.338c-7.138,2.078 -24.229,2.562 -55.381,1.57c-3.103,-0.099 -3.009,-0.23 4.735,-6.624c1.99,-1.643 4.416,-3.694 5.391,-4.557c0.975,-0.863 2.829,-2.5 4.12,-3.637c1.29,-1.137 3.543,-3.152 5.006,-4.479c1.462,-1.326 3.097,-2.767 3.632,-3.201c0.535,-0.434 1.748,-1.419 2.696,-2.187c0.947,-0.769 2.963,-2.549 4.478,-3.957c3.164,-2.938 2.962,-2.761 7.749,-6.807c1.992,-1.683 4.009,-3.481 4.482,-3.997c0.474,-0.515 1.559,-1.465 2.412,-2.111c1.743,-1.32 2.852,-2.27 6.329,-5.423c1.328,-1.203 2.809,-2.443 3.293,-2.756c0.484,-0.313 1.812,-1.432 2.95,-2.488c1.139,-1.056 3.392,-3.149 5.007,-4.651c1.615,-1.503 4.406,-3.972 6.201,-5.487c1.796,-1.515 3.498,-3.014 3.782,-3.33c0.775,-0.86 7.937,-6.9 9.312,-7.85c0.658,-0.456 2.053,-1.615 3.1,-2.577c2.417,-2.22 6.074,-5.238 8.949,-7.385c3.493,-2.607 3.254,-3.868 3.385,17.911M56.172,230.173c0.196,0.364 0.58,0.662 0.855,0.662c0.465,0 3.298,2.247 6.539,5.184c0.758,0.687 2.463,2.231 3.79,3.431c1.326,1.2 2.722,2.538 3.101,2.974c0.378,0.435 1.309,1.272 2.067,1.859c2.44,1.889 7.027,6.131 14.849,13.73c2.861,2.78 6,5.664 6.976,6.408c0.976,0.745 1.775,1.468 1.775,1.608c0,0.14 1.124,1.104 2.498,2.142c1.374,1.038 3.111,2.52 3.86,3.292c0.749,0.773 1.63,1.405 1.957,1.405c0.328,0 0.691,0.272 0.807,0.603c0.116,0.332 1.092,1.301 2.17,2.153c1.077,0.853 2.427,2.023 2.999,2.6c0.572,0.577 1.971,1.803 3.108,2.724c1.137,0.922 2.654,2.297 3.371,3.055c0.717,0.759 2.101,1.973 3.074,2.7c0.973,0.726 3.466,2.958 5.54,4.96c2.074,2.003 4.411,4.041 5.195,4.531c0.783,0.489 2.2,1.654 3.147,2.589c0.948,0.935 3.196,2.852 4.996,4.261c3.693,2.891 3.388,2.659 5.644,4.277c0.924,0.663 2.475,2.011 3.445,2.994c0.97,0.984 2.151,1.934 2.625,2.113c2.517,0.948 -40.078,1.389 -44.961,0.465c-1.137,-0.215 -3.308,-0.568 -4.824,-0.784c-1.516,-0.217 -4.074,-0.749 -5.685,-1.182c-1.61,-0.433 -3.829,-0.97 -4.929,-1.192c-1.101,-0.222 -3.073,-0.933 -4.383,-1.581c-1.311,-0.647 -2.476,-1.177 -2.59,-1.177c-0.882,0 -8.198,-3.978 -9.43,-5.127c-0.837,-0.781 -1.72,-1.419 -1.963,-1.419c-0.773,0 -4.469,-3.324 -6.979,-6.276c-1.335,-1.57 -3.053,-3.567 -3.819,-4.439c-0.766,-0.872 -1.393,-1.716 -1.393,-1.876c0,-0.16 -0.366,-0.688 -0.813,-1.172c-1.734,-1.876 -3.698,-6.528 -5.098,-12.077l-1.087,-4.307l0.063,-18.949c0.062,-18.669 0.168,-21.662 0.791,-22.447c0.408,-0.514 2.206,0.338 2.712,1.285" id="path1 1 1 1" fill="#333d54"/><path d="M196.727,13.084c-3.179,0.502 -7.052,2.968 -13.12,8.353c-2.195,1.948 -6.42,5.685 -9.389,8.305c-2.969,2.62 -5.398,4.853 -5.398,4.963c0,0.178 1.285,-0.802 1.723,-1.315c0.094,-0.111 1.877,-1.645 3.962,-3.409c2.084,-1.764 3.945,-3.379 4.134,-3.588c1.416,-1.564 10.188,-8.867 12.999,-10.822c2.693,-1.873 6.887,-2.707 10.257,-2.041c1.154,0.229 1.147,0.218 -0.172,-0.245c-1.506,-0.529 -2.629,-0.574 -4.996,-0.201M203.962,14.122c1.988,0.651 3.951,1.886 7.261,4.567c1.93,1.565 3.899,3.104 4.375,3.421c0.476,0.317 0.96,0.713 1.075,0.881c0.115,0.168 1.294,1.21 2.621,2.316c1.326,1.106 3.712,3.19 5.302,4.631c3.201,2.901 3.609,3.251 8.307,7.115c1.8,1.481 4.125,3.412 5.168,4.292c1.042,0.879 3.91,3.265 6.373,5.3c2.464,2.036 5.565,4.626 6.891,5.755c3.993,3.399 11.419,9.482 13.704,11.225c1.812,1.383 3.244,2.571 8.174,6.784c0.284,0.243 2.067,1.734 3.962,3.314c1.895,1.581 3.828,3.197 4.296,3.593c0.721,0.61 0.774,0.62 0.345,0.065c-0.278,-0.361 -1.979,-1.874 -3.779,-3.364c-1.801,-1.489 -4.282,-3.577 -5.513,-4.64c-1.232,-1.063 -3.787,-3.176 -5.678,-4.696c-1.891,-1.519 -4.685,-3.804 -6.209,-5.077c-1.524,-1.273 -4.317,-3.566 -6.208,-5.097c-3.457,-2.797 -6.99,-5.741 -12.002,-10.001c-2.848,-2.421 -6.015,-5.057 -6.596,-5.49c-1.5,-1.118 -11.5,-9.628 -12.231,-10.41c-0.227,-0.243 -6.466,-5.586 -9.302,-7.966c-5.376,-4.513 -9.079,-6.902 -10.583,-6.829c-0.422,0.02 -0.345,0.117 0.247,0.311M197.396,26.082c-2.252,1.895 -2.202,1.423 -2.392,22.325l-0.172,18.949l-1.482,2.411c-0.815,1.327 -1.665,2.722 -1.888,3.101c-2.803,4.757 -3.087,5.142 -6.11,8.269c-3.097,3.204 -6.568,5.906 -13.259,10.322c-2.274,1.501 -4.186,2.855 -4.249,3.008c-0.063,0.153 -0.271,0.279 -0.462,0.279c-0.192,0 -0.76,0.316 -1.264,0.702c-4.694,3.602 -10.52,7.969 -11.846,8.88c-0.895,0.616 -2.308,1.696 -3.141,2.401c-0.832,0.705 -3.123,2.518 -5.09,4.029c-5.038,3.871 -10.565,9.45 -12.295,12.412c-4.493,7.696 -3.471,16.849 2.478,22.19c0.547,0.491 1.167,1.05 1.378,1.243c0.641,0.585 5.184,3.809 10.094,7.162c1.48,1.011 3.701,2.532 4.936,3.38c2.59,1.78 3.432,2.294 2.924,1.784c-0.743,-0.745 -5.304,-3.945 -13.607,-9.547c-9.033,-6.095 -12.188,-12.509 -10.126,-20.586c1.881,-7.368 5.81,-11.461 24.422,-25.445c10.435,-7.84 10.724,-8.048 16.709,-12.058c2.369,-1.587 4.772,-3.245 5.341,-3.684c0.568,-0.439 1.188,-0.916 1.378,-1.061c6.731,-5.152 8.254,-6.927 13.397,-15.623l1.965,-3.321l0.324,-3.914c0.185,-2.225 0.23,-10.083 0.105,-18.212c-0.248,-16.173 -0.127,-17.319 2.023,-19.128c2.167,-1.824 6.356,-0.677 7.569,2.074c0.362,0.819 0.456,5.227 0.456,21.255v20.222l-1.06,1.139c-0.583,0.627 -1.881,2.409 -2.885,3.961c-1.003,1.552 -2.023,2.898 -2.266,2.991c-0.488,0.188 -4.067,6.43 -4.469,7.796c-0.14,0.474 -0.447,1.094 -0.683,1.378c-0.237,0.284 -0.535,0.982 -0.662,1.551c-0.128,0.568 -0.677,2.506 -1.221,4.306c-5.106,16.909 -5.485,38.414 -0.893,50.646c0.32,0.853 0.865,2.636 1.21,3.962c1.248,4.794 4.568,11.877 6.655,14.199c0.991,1.102 1.771,0.529 3.051,-2.243c3.492,-7.56 5.729,-12.118 6.652,-13.551c2.402,-3.728 3.743,-5.989 4.196,-7.073c0.265,-0.633 0.603,-1.151 0.752,-1.151c0.15,0 0.618,-0.659 1.042,-1.464c1.072,-2.036 2.746,-4.387 4.412,-6.194c0.776,-0.842 1.696,-1.983 2.045,-2.535c0.348,-0.552 1.555,-2.06 2.683,-3.351c1.779,-2.037 3.52,-3.688 10.421,-9.88c1.431,-1.283 2.377,-1.967 6.378,-4.611c3.846,-2.542 4.01,-2.637 7.709,-4.473c4.374,-2.171 6.628,-3.63 6.835,-4.422c0.129,-0.491 0.518,-0.626 1.832,-0.636c0.918,-0.006 2.676,-0.253 3.908,-0.547c1.232,-0.294 3.402,-0.691 4.824,-0.882c3.479,-0.468 7.676,-1.352 5.512,-1.162c-3.138,0.276 -9.187,1.216 -11.128,1.73c-2.589,0.685 -6.772,0.7 -7.669,0.028c-0.368,-0.276 -1.558,-0.606 -2.644,-0.733c-1.087,-0.128 -2.152,-0.445 -2.368,-0.705c-0.216,-0.26 -0.886,-0.473 -1.49,-0.473c-0.604,0 -1.399,-0.227 -1.767,-0.506c-0.368,-0.278 -1.138,-0.51 -1.712,-0.516c-0.573,-0.007 -1.349,-0.221 -1.722,-0.477c-0.374,-0.256 -1.145,-0.571 -1.714,-0.701c-0.568,-0.129 -1.498,-0.451 -2.067,-0.716c-0.568,-0.264 -1.808,-0.822 -2.756,-1.241c-9.995,-4.421 -16.011,-8.84 -24.117,-17.717c-1.516,-1.66 -2.811,-3.27 -2.878,-3.578c-0.067,-0.308 -0.377,-0.847 -0.689,-1.199c-0.509,-0.572 -0.586,-2.761 -0.751,-21.188c-0.131,-14.662 -0.3,-20.818 -0.59,-21.486c-1.222,-2.814 -5.768,-4 -8.032,-2.095M109.216,27.231c-8.303,0.379 -18.057,2.04 -22.222,3.783c-0.379,0.159 -1.774,0.706 -3.101,1.217c-1.326,0.51 -2.823,1.219 -3.326,1.575c-0.503,0.356 -1.037,0.647 -1.187,0.647c-0.15,0 -0.824,0.365 -1.498,0.81c-0.673,0.446 -2.852,1.872 -4.842,3.169c-4.694,3.06 -12.244,10.569 -13.654,13.582c-0.314,0.669 -1.097,1.836 -1.741,2.594c-0.644,0.758 -1.366,1.611 -1.604,1.895c-0.238,0.284 -0.714,1.447 -1.057,2.584c-0.344,1.137 -0.755,2.228 -0.913,2.425c-0.158,0.197 -0.458,1.425 -0.667,2.729c-0.208,1.304 -0.455,2.495 -0.548,2.646c-0.915,1.481 -0.763,41.684 0.162,42.798c0.845,1.018 1.116,0.875 5.182,-2.726c1.901,-1.685 9.173,-7.81 11.123,-9.371c0.77,-0.616 1.585,-1.119 1.812,-1.119c0.226,0 0.895,-0.601 1.485,-1.336c0.59,-0.734 2.438,-2.396 4.106,-3.693c1.668,-1.297 4.641,-3.758 6.606,-5.469c1.966,-1.711 4.242,-3.654 5.058,-4.317c8.054,-6.543 11.227,-9.132 13.607,-11.101c1.605,-1.329 4.702,-3.978 5.349,-4.575c0.411,-0.379 1.736,-1.417 2.945,-2.307c1.209,-0.89 2.85,-2.245 3.646,-3.012c0.797,-0.767 2.05,-1.822 2.786,-2.345c2.267,-1.611 6.99,-5.473 11.75,-9.609c0.684,-0.594 2.117,-1.756 3.185,-2.584c1.069,-0.827 3.084,-2.483 4.479,-3.68c1.395,-1.197 2.899,-2.437 3.342,-2.756c0.443,-0.32 1.296,-1.056 1.895,-1.637c0.599,-0.582 1.71,-1.504 2.468,-2.05c1.79,-1.289 5.468,-4.335 7.305,-6.05c0.796,-0.744 1.644,-1.352 1.882,-1.352c0.309,0 0.282,-0.153 -0.093,-0.528c-0.922,-0.921 -29.773,-1.474 -43.72,-0.837M247.225,27.178c-0.203,0.329 1.89,2.365 4.11,3.998c0.758,0.557 2.034,1.6 2.835,2.317c0.801,0.718 1.589,1.305 1.751,1.305c0.162,0 0.98,0.641 1.817,1.424c0.837,0.784 2.684,2.355 4.105,3.491c1.421,1.136 2.662,2.161 2.756,2.279c0.31,0.383 3.278,2.945 4.638,4.003c0.731,0.568 1.901,1.615 2.599,2.325c0.699,0.711 1.41,1.293 1.582,1.293c0.171,0 1.474,1.079 2.896,2.397c1.421,1.318 3.087,2.671 3.703,3.007c0.616,0.335 1.12,0.795 1.12,1.021c0,0.227 0.469,0.773 1.042,1.214c2.401,1.848 5.967,4.762 9.294,7.596c1.421,1.211 3.141,2.58 3.823,3.044c0.681,0.463 2.231,1.717 3.445,2.787c4.387,3.867 7.96,6.84 8.219,6.84c0.145,0 1.333,1.011 2.638,2.246c1.306,1.236 2.995,2.669 3.753,3.186c0.758,0.517 1.998,1.506 2.756,2.197c0.758,0.692 2.463,2.224 3.79,3.406c1.326,1.181 3.117,2.786 3.979,3.567c0.863,0.78 2.545,2.194 3.74,3.142c1.195,0.947 2.526,2.034 2.959,2.416c0.433,0.381 1.696,1.492 2.806,2.469c1.111,0.977 3.105,2.576 4.431,3.554c1.327,0.977 3.187,2.46 4.135,3.295c0.947,0.835 2.304,2.002 3.014,2.594l1.292,1.075v-0.828c0,-0.456 -0.169,-0.998 -0.376,-1.205c-0.272,-0.272 -0.272,-0.571 0,-1.08c0.644,-1.204 0.515,-37.958 -0.138,-39.21c-0.284,-0.543 -0.52,-1.297 -0.526,-1.676c-0.019,-1.286 -1.657,-6.47 -2.332,-7.383c-0.369,-0.499 -1.023,-1.6 -1.454,-2.447c-0.787,-1.547 -1.43,-2.479 -3.184,-4.613c-0.521,-0.634 -0.948,-1.312 -0.948,-1.507c0,-0.833 -9.245,-9.618 -12.06,-11.46c-4.089,-2.676 -6.916,-4.335 -7.897,-4.634c-0.46,-0.14 -2.182,-0.934 -3.826,-1.763c-1.645,-0.829 -3.236,-1.508 -3.536,-1.508c-0.301,0 -0.63,-0.134 -0.732,-0.299c-0.101,-0.164 -1.002,-0.404 -2.001,-0.532c-0.999,-0.128 -2.747,-0.469 -3.884,-0.758c-1.137,-0.29 -2.927,-0.747 -3.977,-1.017c-1.088,-0.279 -5.317,-0.643 -9.82,-0.844c-4.349,-0.194 -10.6,-0.505 -13.89,-0.691c-7.451,-0.421 -28.192,-0.445 -28.447,-0.033M165.878,36.901c-3.352,2.94 -4.469,4.138 -2.272,2.437c2.915,-2.257 5.324,-4.54 4.79,-4.54c-0.066,0 -1.199,0.946 -2.518,2.103M159.636,42.3c-2.56,2.344 -8.237,7.242 -10.107,8.721c-0.881,0.696 -2.056,1.69 -2.611,2.209c-0.555,0.518 -1.707,1.498 -2.56,2.176c-0.852,0.679 -1.705,1.397 -1.895,1.596c-0.189,0.199 -1.273,1.138 -2.408,2.085c-2.435,2.032 -2.297,1.918 -7.583,6.232c-2.274,1.856 -4.76,3.926 -5.525,4.6c-0.764,0.675 -2.151,1.847 -3.081,2.605c-0.93,0.758 -2.397,2.013 -3.261,2.789c-0.863,0.777 -1.88,1.655 -2.259,1.951c-0.916,0.718 -13.543,11.153 -14.642,12.102c-0.474,0.409 -1.482,1.202 -2.24,1.764c-0.758,0.561 -2.967,2.39 -4.909,4.065l-3.532,3.045l0.082,27.969l0.082,27.968l0.177,-27.743l0.176,-27.743l0.753,-0.957c0.414,-0.526 1.577,-1.604 2.584,-2.395c1.007,-0.79 1.916,-1.555 2.02,-1.699c0.104,-0.144 1.127,-1 2.273,-1.903c4.244,-3.344 8.688,-6.967 13.246,-10.798c8.311,-6.986 21.603,-18.055 24.792,-20.646c0.816,-0.663 2.28,-1.904 3.253,-2.756c2.265,-1.985 7.194,-6.15 8.119,-6.861c0.392,-0.301 1.206,-1.015 1.81,-1.586c0.604,-0.572 1.946,-1.735 2.981,-2.584c1.036,-0.85 2.586,-2.201 3.445,-3.003c0.86,-0.802 1.674,-1.461 1.809,-1.464c0.136,-0.004 0.412,-0.316 0.615,-0.695c0.508,-0.949 0.416,-0.894 -1.604,0.956M282.515,77.951c0,0.171 3.053,2.905 6.584,5.899c2.147,1.82 5.987,5.207 6.336,5.588c0.769,0.84 5.268,4.87 6.695,5.997c5.12,4.042 5.408,5.179 0.977,3.857c-2.72,-0.811 -6.235,-1.431 -9.222,-1.624c-2.17,-0.141 -1.445,0.019 3.703,0.821c1.374,0.214 3.622,0.718 4.996,1.121c3.369,0.988 4.194,1.007 4.323,0.1c0.108,-0.75 -0.307,-1.159 -5.996,-5.906c-1.537,-1.282 -4.25,-3.661 -6.03,-5.287c-1.78,-1.626 -3.701,-3.351 -4.269,-3.833c-0.569,-0.482 -1.887,-1.613 -2.929,-2.513c-1.042,-0.901 -2.36,-2.029 -2.928,-2.507c-0.569,-0.479 -1.305,-1.104 -1.637,-1.389c-0.332,-0.285 -0.603,-0.43 -0.603,-0.324M278.295,97.415c2.51,0.059 6.619,0.059 9.13,0c2.51,-0.059 0.456,-0.107 -4.565,-0.107c-5.022,0 -7.076,0.048 -4.565,0.107M81.998,109.499c-0.473,0.309 -2.111,1.651 -3.638,2.982c-1.528,1.331 -3.987,3.428 -5.465,4.659c-1.477,1.232 -2.863,2.4 -3.079,2.597c-0.892,0.81 -7.257,5.886 -8.017,6.392c-0.451,0.301 -1.246,0.923 -1.767,1.381c-0.52,0.459 -3.503,2.844 -6.63,5.302c-3.126,2.458 -7.174,5.713 -8.995,7.232c-1.821,1.52 -4.367,3.617 -5.658,4.659c-1.291,1.042 -3.367,2.755 -4.614,3.806c-1.246,1.051 -3.739,3.008 -5.539,4.35c-10.458,7.793 -12.843,10.72 -12.702,15.593c0.039,1.371 0.08,1.274 0.316,-0.754c0.254,-2.184 2.296,-6.795 3.014,-6.806c0.133,-0.002 0.905,-0.638 1.716,-1.413c0.81,-0.775 2.36,-2.075 3.445,-2.889c3.435,-2.577 8.999,-7.007 12.259,-9.758c1.732,-1.462 4.622,-3.815 6.422,-5.229c1.8,-1.414 4.359,-3.463 5.685,-4.553c1.327,-1.089 2.799,-2.285 3.273,-2.657c0.474,-0.371 1.969,-1.576 3.323,-2.676c1.354,-1.101 3.579,-2.854 4.944,-3.896c3.239,-2.473 9.658,-7.714 16.032,-13.092c6.366,-5.37 6.394,-5.387 6.964,-4.19l0.438,0.917l-0.199,-1.034c-0.273,-1.42 -0.529,-1.574 -1.528,-0.923M316.617,110.951c-0.217,0.406 -0.338,21.251 -0.338,58.258v57.627l0.926,0.966c1.35,1.409 4.274,1.256 4.232,-0.222c-0.006,-0.199 -0.169,-0.091 -0.362,0.241c-0.538,0.923 -2.763,0.805 -3.704,-0.197l-0.751,-0.799l0.006,-57.408c0.003,-31.575 0.091,-57.632 0.196,-57.906c0.151,-0.392 0.387,-0.314 1.116,0.369c0.509,0.477 1.468,1.215 2.131,1.64c0.663,0.425 1.593,1.151 2.067,1.613c0.75,0.732 4.679,4.092 6.724,5.751c2.194,1.78 4.554,3.769 5.319,4.483c2.067,1.932 13.208,11.032 14.189,11.591c0.784,0.446 -0.768,-0.927 -3.494,-3.09c-1.421,-1.127 -2.66,-2.135 -2.755,-2.239c-0.095,-0.105 -1.411,-1.198 -2.924,-2.43c-1.513,-1.232 -2.987,-2.472 -3.275,-2.756c-0.51,-0.503 -6.397,-5.512 -11.686,-9.943c-1.438,-1.205 -2.739,-2.406 -2.89,-2.67c-0.152,-0.264 -0.49,-0.479 -0.751,-0.479c-0.261,0 -1.187,-0.682 -2.056,-1.516c-1.435,-1.374 -1.613,-1.457 -1.92,-0.884M83.376,171.728c0,39.407 -0.111,57.069 -0.361,57.223c-0.395,0.244 -0.649,0.089 -3.844,-2.363l-2.168,-1.663l2.067,1.948c3.121,2.941 3.591,3.213 4.176,2.413c0.469,-0.641 0.77,-114.557 0.303,-114.557c-0.095,0 -0.173,25.649 -0.173,56.999M350.369,138.737c0.816,0.699 2.065,1.668 2.776,2.154c0.711,0.486 2.281,1.763 3.488,2.838c1.208,1.075 5.141,4.292 8.742,7.148c12.654,10.038 14.256,11.557 15.324,14.525c0.404,1.123 0.676,1.553 0.684,1.079c0.03,-1.9 -2.886,-5.598 -7.051,-8.942c-0.757,-0.608 -3.626,-2.896 -6.373,-5.084c-2.748,-2.189 -5.229,-4.17 -5.513,-4.404c-6.285,-5.172 -13.133,-10.583 -13.393,-10.583c-0.092,0 0.5,0.571 1.316,1.269M270.112,148.124c-1.421,0.108 1.447,0.205 6.374,0.215c7.026,0.015 9.688,0.152 12.345,0.633c1.863,0.337 3.456,0.544 3.542,0.458c0.993,-0.993 -14.45,-1.899 -22.261,-1.306M261.671,149.059c-6.071,1.462 -11.815,3.049 -12.575,3.474c-0.516,0.289 -0.585,0.389 -0.173,0.25c3.087,-1.044 15.091,-3.869 17.227,-4.055c1.033,-0.089 0.904,-0.125 -0.517,-0.143c-1.042,-0.013 -2.825,0.2 -3.962,0.474M293.368,149.767c0.88,0.204 5.64,1.667 6.546,2.011c0.474,0.18 0.581,0.149 0.344,-0.097c-0.431,-0.449 -6.075,-2.169 -6.94,-2.115c-0.57,0.036 -0.565,0.058 0.05,0.201M300.775,152.071c0,0.073 0.582,0.407 1.292,0.743c4.738,2.236 4.929,2.589 5.269,9.722l0.274,5.767l-0.105,-5.925c-0.098,-5.482 -0.162,-5.998 -0.859,-6.891c-0.924,-1.184 -5.871,-4.063 -5.871,-3.416M243.755,154.372c-1.895,0.763 -4.608,1.968 -6.029,2.677c-4.562,2.277 -10.836,5.654 -11.397,6.136c-0.299,0.257 -0.698,0.467 -0.887,0.467c-0.189,0 -0.711,0.391 -1.16,0.87l-0.817,0.869l1.039,0.939c0.572,0.517 2.625,1.947 4.563,3.179c1.938,1.232 5.987,4.1 8.998,6.374c5.161,3.897 9.327,6.937 13.27,9.683c0.948,0.659 3.041,2.122 4.651,3.25c10.618,7.437 13.707,16.141 9.714,27.377c-1.198,3.37 -5.751,8.395 -12.642,13.954c-1.516,1.223 -2.963,2.422 -3.215,2.665c-0.704,0.678 -8.367,6.547 -11.715,8.972c-3.511,2.544 -3.598,2.604 -6.948,4.74c-2.59,1.652 -10.186,6.695 -13.092,8.692c-7.755,5.33 -13.23,12.444 -13.041,16.944c0.049,1.158 0.06,1.168 0.195,0.191c0.749,-5.413 3.274,-9.01 10.09,-14.375c1.61,-1.268 3.162,-2.506 3.447,-2.75c0.285,-0.245 2.611,-1.825 5.168,-3.511c2.557,-1.686 5.545,-3.663 6.641,-4.393c1.095,-0.73 2.079,-1.327 2.185,-1.327c0.106,0 0.549,-0.271 0.983,-0.603c0.434,-0.332 1.13,-0.836 1.547,-1.12c10.808,-7.375 26.518,-20.794 29.242,-24.978c5.169,-7.939 3.961,-19.471 -2.725,-26.03c-2.775,-2.721 -3.577,-3.339 -11.654,-8.973c-2.727,-1.902 -5.517,-3.891 -6.201,-4.42c-1.326,-1.026 -8.902,-6.724 -10.146,-7.632c-0.409,-0.298 -2.555,-1.743 -4.769,-3.21c-5.139,-3.405 -5.23,-3.513 -3.886,-4.595c1.307,-1.052 7.36,-4.355 12.562,-6.853c5.592,-2.686 5.777,-2.769 8.269,-3.713c1.232,-0.467 2.007,-0.856 1.722,-0.866c-0.284,-0.01 -2.067,0.606 -3.962,1.37M92.828,167.27c0,4.737 0.048,6.723 0.108,4.412c0.059,-2.31 0.06,-6.186 0,-8.613c-0.059,-2.427 -0.108,-0.537 -0.108,4.201M156.072,159.3c0,0.644 19.055,14.33 22.395,16.084c0.838,0.441 0.803,0.47 -1.327,1.101c-1.203,0.357 -2.103,0.734 -1.999,0.838c0.105,0.105 0.686,0.017 1.292,-0.194c0.607,-0.212 1.449,-0.385 1.871,-0.385c1.458,0 1.756,-0.945 0.515,-1.631c-0.973,-0.537 -6.685,-4.17 -8.397,-5.341c-0.899,-0.615 -4.118,-2.943 -4.531,-3.278c-0.339,-0.274 -2.771,-2.09 -3.445,-2.572c-0.189,-0.135 -0.887,-0.686 -1.55,-1.223c-1.914,-1.552 -4.824,-3.602 -4.824,-3.399M381.106,171.48c-0.148,2.972 -4.937,9.166 -9.531,12.327c-0.99,0.681 -8.977,7.063 -13.737,10.976c-1.35,1.11 -4.001,3.263 -5.891,4.785c-3.591,2.891 -4.168,3.37 -10.345,8.588c-2.963,2.503 -11.106,10.208 -10.187,9.638c0.107,-0.067 1.901,-1.71 3.986,-3.651c2.084,-1.942 4.875,-4.436 6.201,-5.544c1.327,-1.108 3.521,-2.953 4.877,-4.101c1.355,-1.147 4.21,-3.482 6.344,-5.187c2.133,-1.705 4.978,-4.031 6.32,-5.168c1.343,-1.137 2.597,-2.182 2.786,-2.323c0.19,-0.141 0.992,-0.778 1.783,-1.415c0.79,-0.637 3.5,-2.77 6.02,-4.74c8.203,-6.409 11.961,-11.017 11.567,-14.183l-0.138,-1.112l-0.055,1.11M16.233,171.965c-0.087,1.973 1.749,4.944 4.754,7.694c0.837,0.765 1.767,1.636 2.068,1.935c1.176,1.172 7.564,6.119 7.396,5.729c-0.098,-0.228 -1.507,-1.423 -3.13,-2.655c-6.303,-4.783 -10.157,-9.207 -10.804,-12.403c-0.204,-1.006 -0.251,-1.056 -0.284,-0.3M93.077,178.238c-0.083,3.634 1.488,5.48 7.149,8.401c1.213,0.626 2.255,1.089 2.315,1.029c0.06,-0.06 -1.01,-0.698 -2.379,-1.419c-4.989,-2.627 -6.494,-4.412 -6.826,-8.1l-0.204,-2.266l-0.055,2.355M172.936,177.767c-0.294,0.173 -1.922,0.777 -3.618,1.344c-2.841,0.949 -4.777,1.675 -6.527,2.447c-2.699,1.191 -15.518,5.74 -17.571,6.235c-0.758,0.183 -1.689,0.479 -2.068,0.657c-0.379,0.178 -1.076,0.398 -1.55,0.487c-0.474,0.09 -0.319,0.108 0.345,0.04c1.444,-0.148 5.2,-1.171 5.684,-1.549c0.19,-0.148 0.887,-0.384 1.549,-0.526c0.663,-0.142 1.671,-0.458 2.24,-0.701c0.569,-0.243 2.663,-1.021 4.652,-1.728c1.99,-0.707 4.083,-1.476 4.652,-1.709c0.568,-0.234 1.886,-0.762 2.928,-1.174c1.042,-0.411 2.205,-0.883 2.584,-1.047c0.379,-0.164 1.929,-0.721 3.445,-1.237c4.406,-1.5 5.236,-1.842 4.479,-1.847c-0.379,-0.003 -0.93,0.136 -1.224,0.308M307.138,199.139c0,10.895 0.044,15.353 0.097,9.905c0.053,-5.448 0.053,-14.363 0,-19.811c-0.053,-5.447 -0.097,-0.99 -0.097,9.906M187.136,187.092c-0.789,1.539 -1.434,3.077 -1.434,3.418c0,0.341 -0.217,0.8 -0.483,1.021c-0.266,0.22 -0.577,0.776 -0.692,1.234c-0.252,1.003 -3.341,7.373 -4.511,9.302c-0.46,0.758 -1.078,1.843 -1.375,2.412c-2.287,4.384 -11.356,15.415 -15.118,18.387c-5.857,4.627 -7.75,6.191 -8.697,7.186c-0.591,0.62 -1.388,1.128 -1.772,1.128c-0.384,0 -0.787,0.233 -0.896,0.517c-0.109,0.284 -0.426,0.517 -0.703,0.517c-0.278,0 -1.484,0.765 -2.681,1.7c-1.197,0.935 -2.588,2.021 -3.092,2.412c-0.504,0.391 -1.155,0.711 -1.448,0.711c-0.652,0 -3.829,0.83 -5.159,1.348c-1.059,0.412 -4.939,1.303 -6.603,1.517c-0.791,0.101 -0.691,0.145 0.427,0.184c1.41,0.05 6.085,-1.011 7.497,-1.701c1.398,-0.683 5.938,-0.348 10.336,0.762c0.758,0.191 2.386,0.561 3.618,0.822c1.231,0.261 2.918,0.715 3.747,1.01c0.829,0.296 1.779,0.537 2.111,0.537c0.332,0 0.796,0.232 1.032,0.517c0.236,0.284 0.665,0.517 0.953,0.517c1.233,0 7.576,2.867 12.139,5.487c6.143,3.528 16.193,12.256 16.193,14.064c0,0.289 0.349,0.879 0.776,1.313c1.389,1.413 2.325,2.831 2.325,3.523c0,0.374 0.232,0.871 0.514,1.106c0.444,0.368 0.527,3.273 0.606,21.144l0.092,20.718l0.083,-20.733c0.072,-18.046 0.016,-20.8 -0.433,-21.25c-0.285,-0.284 -0.517,-0.897 -0.517,-1.361c0,-0.464 -0.216,-1.023 -0.48,-1.242c-0.603,-0.5 -0.891,-1.553 -0.567,-2.076c0.177,-0.287 0.37,-0.249 0.689,0.134c0.841,1.014 1.681,0.641 2.095,-0.931c0.212,-0.805 0.593,-1.788 0.847,-2.184c0.253,-0.397 0.537,-1.947 0.63,-3.446c0.209,-3.376 1.189,-10.628 1.627,-12.051c0.425,-1.377 0.426,-17.446 0.001,-18.478c-0.179,-0.436 -0.484,-3.38 -0.679,-6.544c-0.195,-3.164 -0.509,-6.42 -0.698,-7.235c-0.189,-0.816 -0.666,-3.266 -1.06,-5.445c-1.065,-5.888 -1.661,-8.394 -2.957,-12.446c-0.644,-2.013 -1.171,-3.888 -1.171,-4.168c0,-0.279 -0.311,-0.866 -0.692,-1.305c-0.381,-0.439 -0.86,-1.432 -1.066,-2.206c-0.907,-3.422 -1.535,-3.393 -3.354,0.154M31.008,187.85c0,0.138 5.164,4.205 7.99,6.293c1.718,1.27 6.974,5.463 9.265,7.392c1.248,1.051 4.098,3.383 6.334,5.183c2.236,1.801 5.326,4.359 6.867,5.685c1.541,1.327 4.195,3.49 5.897,4.807c1.703,1.317 3.173,2.499 3.268,2.625c0.304,0.407 5.494,4.454 5.711,4.454c0.115,0 -0.697,-0.729 -1.804,-1.621c-1.107,-0.892 -2.09,-1.706 -2.185,-1.809c-0.42,-0.456 -4.435,-3.764 -5.684,-4.682c-0.758,-0.558 -1.456,-1.092 -1.551,-1.188c-0.504,-0.51 -11.206,-9.366 -15.624,-12.93c-5.541,-4.469 -6.304,-5.073 -10.622,-8.408c-1.576,-1.218 -3.564,-2.783 -4.417,-3.478c-1.733,-1.412 -3.445,-2.567 -3.445,-2.323M104.22,188.317c3.446,1.294 10.094,2.894 11.887,2.86c0.683,-0.013 -0.212,-0.287 -2.067,-0.632c-3.73,-0.693 -7.25,-1.61 -8.838,-2.303c-0.597,-0.26 -1.372,-0.466 -1.723,-0.458c-0.35,0.009 -0.016,0.248 0.741,0.533M137.984,189.663c-4.062,1.009 -6.954,1.339 -13.608,1.553l-7.063,0.227l5.512,0.036c7.064,0.047 14.225,-0.765 17.054,-1.933c1.14,-0.47 0.246,-0.415 -1.895,0.117M307.056,228.677c-0.098,9.494 -0.289,10.363 -2.652,12.06c-0.951,0.683 -2.505,1.963 -3.454,2.844c-0.949,0.882 -4.128,3.615 -7.065,6.074c-9.342,7.821 -18.674,15.761 -23.428,19.931c-1.611,1.412 -4.945,4.305 -7.408,6.427c-2.463,2.122 -4.556,3.952 -4.651,4.065c-0.095,0.114 -1.025,0.896 -2.067,1.737c-1.042,0.841 -2.14,1.773 -2.439,2.071c-0.299,0.297 -3.935,3.483 -8.079,7.079c-4.143,3.595 -8.554,7.467 -9.802,8.604c-10.856,9.896 -15.04,13.814 -19.349,18.121c-7.428,7.426 -10.625,9.768 -14.078,10.311l-1.55,0.245l1.314,0.046c3.194,0.111 5.605,-1.657 15.912,-11.667c3.221,-3.129 7.097,-6.843 8.613,-8.253c1.516,-1.411 3.687,-3.433 4.824,-4.494c1.137,-1.061 3.385,-3.069 4.996,-4.462c5.78,-4.999 7.411,-6.416 9.142,-7.943c0.967,-0.853 2.212,-1.939 2.768,-2.413c1.952,-1.669 6.873,-5.968 7.453,-6.512c0.322,-0.302 0.787,-0.712 1.033,-0.91c0.246,-0.198 1.688,-1.443 3.204,-2.767c1.516,-1.323 3.18,-2.732 3.699,-3.13c0.801,-0.616 5.753,-5.022 7.488,-6.663c0.3,-0.284 1.395,-1.212 2.432,-2.062c1.036,-0.85 3.053,-2.555 4.481,-3.79c1.428,-1.234 3.425,-2.942 4.438,-3.794c1.013,-0.853 2.191,-1.861 2.618,-2.24c0.427,-0.379 1.977,-1.697 3.445,-2.928c1.467,-1.232 3.369,-2.833 4.225,-3.558c0.856,-0.725 2.658,-2.186 4.004,-3.246c1.345,-1.061 3.223,-2.65 4.172,-3.532c0.949,-0.883 2.529,-2.182 3.51,-2.887c2.378,-1.708 2.56,-2.638 2.43,-12.447l-0.1,-7.578l-0.079,7.661M341.774,229.505c-2.875,2.147 -6.532,5.165 -8.949,7.385c-1.047,0.962 -2.442,2.121 -3.1,2.577c-1.375,0.95 -8.537,6.99 -9.312,7.85c-0.284,0.316 -1.986,1.815 -3.782,3.33c-1.795,1.515 -4.586,3.984 -6.201,5.487c-1.615,1.502 -3.868,3.595 -5.007,4.651c-1.138,1.056 -2.466,2.175 -2.95,2.488c-0.484,0.313 -1.965,1.553 -3.293,2.756c-3.477,3.153 -4.586,4.103 -6.329,5.423c-0.853,0.646 -1.938,1.596 -2.412,2.111c-0.473,0.516 -2.49,2.314 -4.482,3.997c-4.787,4.046 -4.585,3.869 -7.749,6.807c-1.515,1.408 -3.531,3.188 -4.478,3.957c-0.948,0.768 -2.161,1.753 -2.696,2.187c-0.535,0.434 -2.17,1.875 -3.632,3.201c-1.463,1.327 -3.716,3.342 -5.006,4.479c-1.291,1.137 -3.145,2.774 -4.12,3.637c-0.975,0.863 -3.401,2.914 -5.391,4.557c-7.744,6.394 -7.838,6.525 -4.735,6.624c31.152,0.992 48.243,0.508 55.381,-1.57c1.99,-0.579 4.112,-1.181 4.716,-1.338c1.145,-0.298 3.793,-1.434 5.276,-2.265c0.474,-0.265 1.801,-0.932 2.95,-1.481c3.347,-1.601 9.486,-5.923 13.185,-9.283c5.967,-5.42 7.948,-7.865 11.621,-14.35c3.293,-5.812 4.017,-12.402 3.88,-35.306c-0.131,-21.779 0.108,-20.518 -3.385,-17.911M53.46,228.888c-0.623,0.785 -0.729,3.778 -0.791,22.447l-0.063,18.949l1.087,4.307c1.4,5.549 3.364,10.201 5.098,12.077c0.447,0.484 0.813,1.012 0.813,1.172c0,0.16 0.627,1.004 1.393,1.876c0.766,0.872 2.484,2.869 3.819,4.439c2.51,2.952 6.206,6.276 6.979,6.276c0.243,0 1.126,0.638 1.963,1.419c1.232,1.149 8.548,5.127 9.43,5.127c0.114,0 1.279,0.53 2.59,1.177c1.31,0.648 3.282,1.359 4.383,1.581c1.1,0.222 3.319,0.759 4.929,1.192c1.611,0.433 4.169,0.965 5.685,1.182c1.516,0.216 3.687,0.569 4.824,0.784c4.883,0.924 47.478,0.483 44.961,-0.465c-0.474,-0.179 -1.655,-1.129 -2.625,-2.113c-0.97,-0.983 -2.521,-2.331 -3.445,-2.994c-2.256,-1.618 -1.951,-1.386 -5.644,-4.277c-1.8,-1.409 -4.048,-3.326 -4.996,-4.261c-0.947,-0.935 -2.364,-2.1 -3.147,-2.589c-0.784,-0.49 -3.121,-2.528 -5.195,-4.531c-2.074,-2.002 -4.567,-4.234 -5.54,-4.96c-0.973,-0.727 -2.357,-1.941 -3.074,-2.7c-0.717,-0.758 -2.234,-2.133 -3.371,-3.055c-1.137,-0.921 -2.536,-2.147 -3.108,-2.724c-0.572,-0.577 -1.922,-1.747 -2.999,-2.6c-1.078,-0.852 -2.054,-1.821 -2.17,-2.153c-0.116,-0.331 -0.479,-0.603 -0.807,-0.603c-0.327,0 -1.208,-0.632 -1.957,-1.405c-0.749,-0.772 -2.486,-2.254 -3.86,-3.292c-1.374,-1.038 -2.498,-2.002 -2.498,-2.142c0,-0.14 -0.799,-0.863 -1.775,-1.608c-0.976,-0.744 -4.115,-3.628 -6.976,-6.408c-7.822,-7.599 -12.409,-11.841 -14.849,-13.73c-0.758,-0.587 -1.689,-1.424 -2.067,-1.859c-0.379,-0.436 -1.775,-1.774 -3.101,-2.974c-1.327,-1.2 -3.032,-2.744 -3.79,-3.431c-3.241,-2.937 -6.074,-5.184 -6.539,-5.184c-0.275,0 -0.659,-0.298 -0.855,-0.662c-0.506,-0.947 -2.304,-1.799 -2.712,-1.285M90.193,239.287c-0.403,0.413 0.365,1.497 1.798,2.535c0.739,0.535 2.01,1.527 2.825,2.204c0.814,0.677 3.165,2.554 5.225,4.171c2.06,1.617 4.781,3.915 6.047,5.106c1.266,1.192 4.605,4.182 7.419,6.645c2.814,2.464 5.993,5.254 7.063,6.202c1.071,0.947 3.164,2.73 4.651,3.962c1.487,1.232 3.512,2.937 4.5,3.79c0.988,0.853 3.468,2.946 5.512,4.651c2.043,1.705 5.334,4.496 7.312,6.202c1.979,1.705 4.63,3.927 5.892,4.936c1.263,1.01 2.838,2.338 3.501,2.95c0.663,0.612 2.446,2.182 3.962,3.488c1.516,1.306 2.834,2.464 2.929,2.575c0.171,0.2 7.938,6.989 9.847,8.608c4.21,3.57 5.902,5.03 6.371,5.498c9.166,9.146 17.729,15.604 20.539,15.488c0.703,-0.029 0.78,-0.084 0.28,-0.198c-4.009,-0.918 -6.473,-2.501 -12.039,-7.732c-1.338,-1.257 -2.974,-2.73 -3.636,-3.273c-0.663,-0.544 -2.368,-2.093 -3.79,-3.443c-1.422,-1.351 -3.981,-3.65 -5.686,-5.111c-1.706,-1.46 -4.186,-3.626 -5.513,-4.814c-1.326,-1.187 -3.497,-3.068 -4.823,-4.18c-1.326,-1.112 -2.489,-2.105 -2.584,-2.206c-0.723,-0.771 -7.03,-6.306 -8.269,-7.257c-0.852,-0.654 -2.945,-2.44 -4.651,-3.967c-1.705,-1.527 -3.881,-3.389 -4.834,-4.139c-0.954,-0.749 -2.563,-2.059 -3.577,-2.91c-2.636,-2.214 -7.287,-6.132 -8.299,-6.992c-0.473,-0.402 -2.318,-1.95 -4.099,-3.439c-3.47,-2.901 -6.704,-5.718 -10.371,-9.033c-8.064,-7.29 -11.544,-10.303 -15.676,-13.573c-4.995,-3.953 -5.454,-4.334 -6.446,-5.338c-1.245,-1.261 -1.08,-1.401 1.099,-0.933c0.97,0.208 2.337,0.357 3.038,0.332l1.275,-0.046l-1.55,-0.262c-3.529,-0.595 -5.009,-0.736 -5.242,-0.497M99.569,240.699c1.752,0.33 5.971,0.526 13.092,0.608l10.509,0.122l-9.819,-0.276c-5.401,-0.152 -10.595,-0.433 -11.542,-0.625c-0.948,-0.192 -2.421,-0.342 -3.273,-0.333c-1.381,0.015 -1.268,0.07 1.033,0.504M126.27,240.66c-2.221,0.342 -2.455,0.429 -1.205,0.447c0.852,0.012 2.635,-0.184 3.962,-0.435c3.079,-0.583 1.007,-0.593 -2.757,-0.012M204.907,293.712c0.067,10.422 0.172,19.26 0.231,19.639c0.06,0.379 0.114,-7.761 0.121,-18.088c0.007,-10.328 -0.097,-19.165 -0.232,-19.639c-0.134,-0.473 -0.188,7.666 -0.12,18.088M194.712,312.563c-0.137,5.153 6.072,7.165 9.496,3.077c1.249,-1.492 0.89,-1.564 -0.504,-0.102c-3.359,3.521 -8.265,1.922 -8.733,-2.847l-0.206,-2.097l-0.053,1.969M197.847,328.584c0.521,0.079 1.373,0.079 1.895,0c0.521,-0.079 0.094,-0.143 -0.948,-0.143c-1.042,0 -1.468,0.064 -0.947,0.143" id="path2 1 1 1" fill="#2fa4e3"/></g></g></g></svg>